
<?xml version="1.0" encoding="utf-8"?>
<!-- Generator: Adobe Illustrator 25.4.1, SVG Export Plug-In . SVG Version: 6.00 Build 0)  -->
<svg version="1.1" id="Layer_1" xmlns="http://www.w3.org/2000/svg" xmlns:xlink="http://www.w3.org/1999/xlink" x="0px" y="0px"
	 viewBox="0 0 146 44" style="enable-background:new 0 0 146 44;" xml:space="preserve">
<style type="text/css">
	.st0{fill-rule:evenodd;clip-rule:evenodd;fill:#965CFF;}
	.st1{fill-rule:evenodd;clip-rule:evenodd;fill:#B992FF;}
	.st2{fill-rule:evenodd;clip-rule:evenodd;fill:#DCC9FF;}
	.st3{fill:#965CFF;}
</style>
<path class="st0" d="M4.7,27.1c1,1,1,2.6,0,3.6l-0.1,0.1c-1,1-2.6,1-3.6,0c-1-1-1-2.6,0-3.6l0.1-0.1C2.1,26.1,3.7,26.1,4.7,27.1z"/>
<path class="st1" d="M16.7,27.8c1,1,1,2.6,0,3.6l-7.1,7c-1,1-2.6,1-3.6,0s-1-2.6,0-3.6l7.1-7C14.1,26.8,15.7,26.8,16.7,27.8z"/>
<path class="st2" d="M26.3,39.9c0.8-1.2,2.4-1.5,3.5-0.7l0.2,0.1c1.2,0.8,1.5,2.4,0.7,3.5c-0.8,1.2-2.4,1.5-3.5,0.7L27,43.4
	C25.9,42.6,25.6,41.1,26.3,39.9z"/>
<path class="st1" d="M43.2,26.9c1,1,1,2.6,0,3.6L39.7,34c-1,1-2.6,1-3.6,0c-1-1-1-2.6,0-3.6l3.5-3.5C40.6,25.9,42.2,25.9,43.2,26.9z
	"/>
<path class="st0" d="M43.3,14.1c1,1,1,2.6,0,3.6L17.6,43.3c-1,1-2.6,1-3.6,0s-1-2.6,0-3.6l25.7-25.5C40.6,13.1,42.3,13.1,43.3,14.1z
	"/>
<path class="st0" d="M38.4,6.3c1,1,1,2.6,0,3.6L23.6,24.6c-1,1-2.6,1-3.6,0c-1-1-1-2.6,0-3.6L34.8,6.3C35.8,5.3,37.4,5.3,38.4,6.3z"
	/>
<path class="st0" d="M30.6,1.3c1,1,1,2.6,0,3.6l-19,18.9c-1,1-2.6,1-3.6,0c-1-1-1-2.6,0-3.6L27,1.3C28,0.3,29.6,0.3,30.6,1.3z"/>
<path class="st1" d="M11.8,7.4c1,1,1,2.6,0,3.6l-7.4,7.4c-1,1-2.6,1-3.6,0c-1-1-1-2.6,0-3.6l7.4-7.4C9.2,6.4,10.8,6.4,11.8,7.4z"/>
<path class="st2" d="M16.4,0c1.4,0,2.6,1.1,2.6,2.5v0.3c0,1.4-1.1,2.5-2.6,2.5s-2.6-1.1-2.6-2.5V2.5C13.8,1.1,14.9,0,16.4,0z"/>
<path class="st3" d="M55.7,18.6v-2.1h3.7c1,0,1.8-0.2,2.5-0.6c0.7-0.4,1.3-1,1.7-1.7c0.4-0.7,0.6-1.6,0.6-2.6c0-1-0.2-1.8-0.6-2.5
	c-0.4-0.7-1-1.3-1.7-1.7c-0.7-0.4-1.6-0.6-2.5-0.6h-3.7V4.6h3.7c1,0,2,0.2,2.8,0.5c0.9,0.3,1.6,0.8,2.3,1.5c0.7,0.6,1.2,1.4,1.5,2.2
	c0.4,0.8,0.5,1.8,0.5,2.8c0,1-0.2,1.9-0.5,2.8s-0.9,1.6-1.5,2.2c-0.6,0.6-1.4,1.1-2.3,1.5c-0.9,0.3-1.8,0.5-2.8,0.5H55.7z
	 M54.2,18.6v-14h2.3v14H54.2z"/>
<path class="st3" d="M73.1,18.8c-1,0-1.8-0.2-2.6-0.6c-0.8-0.4-1.4-1-1.8-1.8c-0.4-0.8-0.7-1.6-0.7-2.6s0.2-1.8,0.7-2.5
	c0.4-0.8,1-1.4,1.8-1.8C71.2,9,72.1,8.8,73,8.8c0.9,0,1.7,0.2,2.4,0.6c0.7,0.4,1.2,1,1.6,1.7c0.4,0.7,0.6,1.5,0.6,2.5
	c0,0.2,0,0.3,0,0.5c0,0.2,0,0.3-0.1,0.5h-7.9v-1.8h6.7l-0.8,0.7c0-0.6-0.1-1.1-0.3-1.5c-0.2-0.4-0.5-0.7-0.9-0.9
	c-0.4-0.2-0.8-0.3-1.3-0.3c-0.6,0-1,0.1-1.5,0.4s-0.7,0.6-1,1c-0.2,0.4-0.3,0.9-0.3,1.5c0,0.6,0.1,1.1,0.4,1.6
	c0.2,0.5,0.6,0.8,1,1.1c0.4,0.2,0.9,0.4,1.5,0.4c0.5,0,0.9-0.1,1.4-0.3c0.4-0.2,0.8-0.4,1.1-0.8l1.4,1.4c-0.5,0.5-1,1-1.7,1.2
	C74.6,18.6,73.9,18.8,73.1,18.8z"/>
<path class="st3" d="M79.6,18.6v-14h2.3v14H79.6z M81.2,12.6v-2.1h7.1v2.1H81.2z M81.2,6.7V4.6h7.5v2.1H81.2z"/>
<path class="st3" d="M90.7,18.6V9h2.2v9.6H90.7z M91.8,7.2c-0.4,0-0.7-0.1-0.9-0.4c-0.2-0.3-0.4-0.6-0.4-0.9c0-0.4,0.1-0.7,0.4-0.9
	c0.3-0.3,0.6-0.4,0.9-0.4c0.4,0,0.7,0.1,0.9,0.4c0.2,0.3,0.4,0.6,0.4,0.9c0,0.4-0.1,0.7-0.4,0.9C92.5,7.1,92.2,7.2,91.8,7.2z"/>
<path class="st3" d="M102,18.8c-1,0-2-0.2-2.8-0.5c-0.9-0.4-1.6-0.9-2.2-1.5c-0.6-0.7-1.1-1.4-1.5-2.3c-0.3-0.9-0.5-1.8-0.5-2.8
	s0.2-1.9,0.5-2.8c0.3-0.9,0.8-1.6,1.5-2.3c0.6-0.7,1.4-1.2,2.2-1.5c0.9-0.4,1.8-0.6,2.8-0.6c1.1,0,2.1,0.2,2.9,0.6
	c0.8,0.4,1.6,0.9,2.2,1.5L105.6,8c-0.4-0.5-0.9-0.8-1.5-1.1c-0.6-0.3-1.3-0.4-2.1-0.4c-0.7,0-1.3,0.1-1.9,0.4
	c-0.6,0.2-1.1,0.6-1.5,1c-0.4,0.4-0.7,1-1,1.6c-0.2,0.6-0.3,1.3-0.3,2s0.1,1.4,0.3,2c0.2,0.6,0.5,1.1,1,1.6c0.4,0.4,0.9,0.8,1.5,1
	c0.6,0.2,1.2,0.4,1.9,0.4c0.9,0,1.6-0.1,2.2-0.4c0.6-0.3,1.1-0.6,1.5-1.1l1.6,1.6c-0.6,0.7-1.4,1.2-2.3,1.5
	C104.1,18.6,103.1,18.8,102,18.8z"/>
<path class="st3" d="M115.6,18.6V13c0-0.6-0.2-1.2-0.6-1.6c-0.4-0.4-0.9-0.6-1.6-0.6c-0.4,0-0.8,0.1-1.1,0.3
	c-0.3,0.2-0.6,0.4-0.8,0.8c-0.2,0.3-0.3,0.7-0.3,1.1l-0.9-0.5c0-0.7,0.2-1.4,0.5-1.9c0.3-0.6,0.8-1,1.3-1.3c0.6-0.3,1.2-0.5,1.9-0.5
	c0.7,0,1.4,0.2,1.9,0.5c0.6,0.3,1,0.8,1.3,1.3c0.3,0.6,0.5,1.2,0.5,2v6H115.6z M109,18.6V4.2h2.2v14.4H109z"/>
<path class="st3" d="M124.1,18.8c-0.9,0-1.7-0.2-2.4-0.7c-0.7-0.4-1.2-1-1.7-1.8c-0.4-0.8-0.6-1.6-0.6-2.5c0-0.9,0.2-1.8,0.6-2.5
	c0.4-0.8,1-1.4,1.7-1.8c0.7-0.5,1.5-0.7,2.4-0.7c0.7,0,1.4,0.2,1.9,0.5c0.6,0.3,1,0.7,1.4,1.3c0.3,0.5,0.5,1.2,0.5,1.9v2.8
	c0,0.7-0.2,1.3-0.5,1.9c-0.3,0.5-0.8,1-1.3,1.3C125.4,18.6,124.8,18.8,124.1,18.8z M124.4,16.7c0.8,0,1.5-0.3,2-0.8
	c0.5-0.5,0.8-1.2,0.8-2.1c0-0.6-0.1-1.1-0.3-1.5c-0.2-0.4-0.5-0.8-1-1c-0.4-0.3-0.9-0.4-1.4-0.4c-0.5,0-1,0.1-1.4,0.4
	c-0.4,0.2-0.7,0.6-1,1c-0.2,0.4-0.3,0.9-0.3,1.5c0,0.6,0.1,1.1,0.3,1.5c0.2,0.4,0.6,0.8,1,1C123.4,16.6,123.9,16.7,124.4,16.7z
	 M127,18.6V16l0.4-2.3l-0.4-2.3V9h2.2v9.6H127z"/>
<path class="st3" d="M131.7,18.6V9h2.2v9.6H131.7z M132.8,7.2c-0.4,0-0.7-0.1-0.9-0.4c-0.2-0.3-0.4-0.6-0.4-0.9
	c0-0.4,0.1-0.7,0.4-0.9c0.3-0.3,0.6-0.4,0.9-0.4c0.4,0,0.7,0.1,0.9,0.4c0.2,0.3,0.4,0.6,0.4,0.9c0,0.4-0.1,0.7-0.4,0.9
	C133.5,7.1,133.1,7.2,132.8,7.2z"/>
<path class="st3" d="M142.9,18.6V13c0-0.6-0.2-1.2-0.6-1.6c-0.4-0.4-0.9-0.6-1.6-0.6c-0.4,0-0.8,0.1-1.1,0.3
	c-0.3,0.2-0.6,0.4-0.8,0.8c-0.2,0.3-0.3,0.7-0.3,1.1l-0.9-0.5c0-0.7,0.2-1.4,0.5-1.9c0.3-0.6,0.8-1,1.3-1.3c0.6-0.3,1.2-0.5,1.9-0.5
	c0.7,0,1.4,0.2,1.9,0.6c0.6,0.4,1,0.8,1.3,1.4c0.3,0.6,0.5,1.2,0.5,1.8v6H142.9z M136.3,18.6V9h2.2v9.6H136.3z"/>
<path class="st3" d="M56.1,39.6v-2.8h3.5c0.9,0,1.6-0.2,2.2-0.5c0.6-0.3,1.1-0.8,1.5-1.5s0.5-1.4,0.5-2.3s-0.2-1.7-0.5-2.3
	c-0.3-0.6-0.8-1.1-1.5-1.5c-0.6-0.3-1.4-0.5-2.2-0.5H56v-2.7h3.6c1.1,0,2,0.2,2.9,0.5c0.9,0.3,1.7,0.8,2.4,1.5
	c0.7,0.6,1.2,1.4,1.6,2.2c0.4,0.9,0.6,1.8,0.6,2.8c0,1-0.2,2-0.6,2.8c-0.4,0.9-0.9,1.6-1.5,2.2c-0.7,0.6-1.5,1.1-2.4,1.5
	c-0.9,0.3-1.9,0.5-2.9,0.5H56.1z M54,39.6V25.5h3.1v14.1H54z"/>
<path class="st3" d="M73.5,39.8c-1,0-1.9-0.2-2.7-0.7c-0.8-0.5-1.4-1.1-1.9-1.8c-0.5-0.8-0.7-1.6-0.7-2.6s0.2-1.8,0.7-2.6
	c0.5-0.8,1.1-1.4,1.9-1.8c0.8-0.5,1.7-0.7,2.7-0.7c1,0,1.9,0.2,2.7,0.7c0.8,0.4,1.4,1,1.9,1.8c0.5,0.8,0.7,1.6,0.7,2.6
	s-0.2,1.8-0.7,2.6c-0.5,0.8-1.1,1.4-1.9,1.8C75.4,39.6,74.5,39.8,73.5,39.8z M73.5,37c0.4,0,0.8-0.1,1.2-0.3
	c0.3-0.2,0.6-0.5,0.8-0.8c0.2-0.4,0.3-0.8,0.3-1.2s-0.1-0.8-0.3-1.2c-0.2-0.3-0.4-0.6-0.8-0.8c-0.3-0.2-0.7-0.3-1.1-0.3
	c-0.4,0-0.8,0.1-1.1,0.3c-0.3,0.2-0.6,0.5-0.8,0.8c-0.2,0.3-0.3,0.7-0.3,1.2c0,0.4,0.1,0.8,0.3,1.2c0.2,0.3,0.4,0.6,0.8,0.8
	C72.7,36.9,73.1,37,73.5,37z"/>
<path class="st3" d="M80.3,39.6v-9.7h3.1v9.7H80.3z M86.5,39.6v-5.7c0-0.5-0.2-0.9-0.5-1.1c-0.3-0.3-0.7-0.4-1.1-0.4
	c-0.3,0-0.6,0.1-0.8,0.2c-0.2,0.1-0.4,0.3-0.6,0.5c-0.1,0.2-0.2,0.5-0.2,0.8l-1.2-0.5c0-0.8,0.2-1.4,0.5-2c0.3-0.6,0.8-1,1.4-1.3
	c0.6-0.3,1.2-0.5,1.9-0.5c0.7,0,1.3,0.2,1.8,0.5c0.5,0.3,1,0.7,1.3,1.3s0.5,1.2,0.5,2v6.2H86.5z M92.8,39.6v-5.7
	c0-0.5-0.2-0.9-0.5-1.1c-0.3-0.3-0.7-0.4-1.1-0.4c-0.3,0-0.6,0.1-0.8,0.2c-0.2,0.1-0.4,0.3-0.6,0.5c-0.1,0.2-0.2,0.5-0.2,0.8
	l-1.8-0.2c0-0.8,0.2-1.5,0.6-2.1c0.4-0.6,0.9-1.1,1.5-1.4c0.6-0.3,1.3-0.5,2.1-0.5c0.7,0,1.4,0.2,2,0.5c0.6,0.3,1,0.8,1.4,1.3
	c0.3,0.6,0.5,1.3,0.5,2.1v6H92.8z"/>
<path class="st3" d="M101.8,39.8c-0.9,0-1.7-0.2-2.4-0.7c-0.7-0.4-1.2-1-1.7-1.8c-0.4-0.8-0.6-1.6-0.6-2.6c0-1,0.2-1.8,0.6-2.6
	c0.4-0.8,1-1.4,1.7-1.8c0.7-0.4,1.5-0.7,2.4-0.7c0.7,0,1.2,0.1,1.8,0.4c0.5,0.3,1,0.6,1.3,1.1c0.3,0.4,0.5,0.9,0.6,1.5v4.2
	c0,0.6-0.2,1.1-0.6,1.5c-0.3,0.4-0.7,0.8-1.3,1C103.1,39.7,102.5,39.8,101.8,39.8z M102.5,37c0.7,0,1.2-0.2,1.6-0.6
	c0.4-0.4,0.6-1,0.6-1.7c0-0.5-0.1-0.9-0.3-1.2c-0.2-0.3-0.4-0.6-0.8-0.8c-0.3-0.2-0.7-0.3-1.1-0.3c-0.4,0-0.8,0.1-1.1,0.3
	c-0.3,0.2-0.6,0.5-0.8,0.8c-0.2,0.3-0.3,0.7-0.3,1.2c0,0.4,0.1,0.8,0.3,1.2c0.2,0.3,0.4,0.6,0.8,0.8C101.7,36.9,102,37,102.5,37z
	 M104.5,39.6V37l0.5-2.4l-0.5-2.4v-2.4h3v9.7H104.5z"/>
<path class="st3" d="M109.7,39.6v-9.7h3.1v9.7H109.7z M111.2,28.5c-0.5,0-0.9-0.2-1.2-0.5c-0.3-0.3-0.5-0.7-0.5-1.2
	c0-0.5,0.2-0.9,0.5-1.2c0.3-0.3,0.7-0.5,1.2-0.5c0.5,0,0.9,0.2,1.2,0.5c0.3,0.3,0.5,0.7,0.5,1.2c0,0.5-0.2,0.9-0.5,1.2
	C112.1,28.4,111.7,28.5,111.2,28.5z"/>
<path class="st3" d="M121.3,39.6V34c0-0.5-0.2-0.9-0.5-1.2c-0.3-0.3-0.7-0.5-1.2-0.5c-0.3,0-0.6,0.1-0.9,0.2
	c-0.3,0.1-0.5,0.3-0.6,0.6c-0.1,0.3-0.2,0.5-0.2,0.9l-1.2-0.6c0-0.8,0.2-1.4,0.5-2s0.8-1,1.4-1.3c0.6-0.3,1.3-0.5,2-0.5
	c0.7,0,1.4,0.2,1.9,0.5c0.6,0.3,1,0.8,1.3,1.3s0.5,1.2,0.5,1.8v6.2H121.3z M114.9,39.6v-9.7h3.1v9.7H114.9z"/>
<path class="st3" d="M129.9,39.8c-0.6,0-1.1-0.1-1.7-0.2c-0.5-0.1-1.1-0.4-1.5-0.6c-0.5-0.3-0.9-0.6-1.2-1l1.7-1.8
	c0.3,0.3,0.7,0.6,1.1,0.8c0.4,0.2,0.9,0.3,1.4,0.3c0.4,0,0.6-0.1,0.8-0.2c0.2-0.1,0.3-0.3,0.3-0.4c0-0.2-0.1-0.4-0.4-0.5
	c-0.2-0.1-0.5-0.2-0.9-0.3c-0.4-0.1-0.7-0.2-1.1-0.3c-0.4-0.1-0.8-0.3-1.1-0.5c-0.4-0.2-0.7-0.5-0.9-0.9c-0.2-0.4-0.3-0.9-0.3-1.5
	c0-0.6,0.2-1.2,0.5-1.6c0.3-0.5,0.8-0.8,1.4-1.1c0.6-0.3,1.3-0.4,2.1-0.4c0.8,0,1.6,0.1,2.3,0.4c0.7,0.3,1.3,0.7,1.7,1.3l-1.7,1.8
	c-0.3-0.4-0.7-0.6-1-0.8c-0.4-0.1-0.7-0.2-1.1-0.2c-0.3,0-0.6,0.1-0.8,0.2c-0.2,0.1-0.3,0.2-0.3,0.4c0,0.2,0.1,0.4,0.3,0.5
	c0.2,0.1,0.5,0.2,0.9,0.3s0.7,0.2,1.1,0.3c0.4,0.1,0.8,0.3,1.1,0.5s0.7,0.5,0.9,0.9c0.2,0.4,0.3,0.9,0.3,1.5c0,0.9-0.4,1.7-1.1,2.3
	C132.1,39.5,131.1,39.8,129.9,39.8z"/>
</svg>
